<?xml version="1.0" standalone="no"?>
<svg xmlns:xlink="http://www.w3.org/1999/xlink" id="wave" style="transform:rotate(180deg); transition: 0.3s" viewBox="0 0 1440 490" version="1.1" xmlns="http://www.w3.org/2000/svg"><defs><linearGradient id="sw-gradient-0" x1="0" x2="0" y1="1" y2="0"><stop stop-color="rgba(255, 145, 0, 1)" offset="0%"/><stop stop-color="rgba(157, 78, 221, 1)" offset="100%"/></linearGradient></defs><path style="transform:translate(0, 0px); opacity:1" fill="url(#sw-gradient-0)" d="M0,147L40,179.7C80,212,160,278,240,277.7C320,278,400,212,480,196C560,180,640,212,720,228.7C800,245,880,245,960,212.3C1040,180,1120,114,1200,89.8C1280,65,1360,82,1440,122.5C1520,163,1600,229,1680,245C1760,261,1840,229,1920,179.7C2000,131,2080,65,2160,40.8C2240,16,2320,33,2400,49C2480,65,2560,82,2640,73.5C2720,65,2800,33,2880,16.3C2960,0,3040,0,3120,16.3C3200,33,3280,65,3360,81.7C3440,98,3520,98,3600,147C3680,196,3760,294,3840,310.3C3920,327,4000,261,4080,253.2C4160,245,4240,294,4320,285.8C4400,278,4480,212,4560,204.2C4640,196,4720,245,4800,294C4880,343,4960,392,5040,383.8C5120,376,5200,310,5280,277.7C5360,245,5440,245,5520,228.7C5600,212,5680,180,5720,163.3L5760,147L5760,490L5720,490C5680,490,5600,490,5520,490C5440,490,5360,490,5280,490C5200,490,5120,490,5040,490C4960,490,4880,490,4800,490C4720,490,4640,490,4560,490C4480,490,4400,490,4320,490C4240,490,4160,490,4080,490C4000,490,3920,490,3840,490C3760,490,3680,490,3600,490C3520,490,3440,490,3360,490C3280,490,3200,490,3120,490C3040,490,2960,490,2880,490C2800,490,2720,490,2640,490C2560,490,2480,490,2400,490C2320,490,2240,490,2160,490C2080,490,2000,490,1920,490C1840,490,1760,490,1680,490C1600,490,1520,490,1440,490C1360,490,1280,490,1200,490C1120,490,1040,490,960,490C880,490,800,490,720,490C640,490,560,490,480,490C400,490,320,490,240,490C160,490,80,490,40,490L0,490Z"/></svg>