<?xml version="1.0" standalone="no"?>
<svg xmlns:xlink="http://www.w3.org/1999/xlink" id="wave" style="transform:rotate(180deg); transition: 0.3s" viewBox="0 0 1440 230" version="1.1" xmlns="http://www.w3.org/2000/svg"><defs><linearGradient id="sw-gradient-0" x1="0" x2="0" y1="1" y2="0"><stop stop-color="rgba(255, 145, 0, 1)" offset="0%"/><stop stop-color="rgba(157, 78, 221, 1)" offset="100%"/></linearGradient></defs><path style="transform:translate(0, 0px); opacity:1" fill="url(#sw-gradient-0)" d="M0,161L80,134.2C160,107,320,54,480,26.8C640,0,800,0,960,15.3C1120,31,1280,61,1440,84.3C1600,107,1760,123,1920,141.8C2080,161,2240,184,2400,164.8C2560,146,2720,84,2880,61.3C3040,38,3200,54,3360,80.5C3520,107,3680,146,3840,134.2C4000,123,4160,61,4320,38.3C4480,15,4640,31,4800,46C4960,61,5120,77,5280,76.7C5440,77,5600,61,5760,53.7C5920,46,6080,46,6240,53.7C6400,61,6560,77,6720,72.8C6880,69,7040,46,7200,42.2C7360,38,7520,54,7680,84.3C7840,115,8000,161,8160,164.8C8320,169,8480,130,8640,107.3C8800,84,8960,77,9120,65.2C9280,54,9440,38,9600,61.3C9760,84,9920,146,10080,164.8C10240,184,10400,161,10560,138C10720,115,10880,92,11040,76.7C11200,61,11360,54,11440,49.8L11520,46L11520,230L11440,230C11360,230,11200,230,11040,230C10880,230,10720,230,10560,230C10400,230,10240,230,10080,230C9920,230,9760,230,9600,230C9440,230,9280,230,9120,230C8960,230,8800,230,8640,230C8480,230,8320,230,8160,230C8000,230,7840,230,7680,230C7520,230,7360,230,7200,230C7040,230,6880,230,6720,230C6560,230,6400,230,6240,230C6080,230,5920,230,5760,230C5600,230,5440,230,5280,230C5120,230,4960,230,4800,230C4640,230,4480,230,4320,230C4160,230,4000,230,3840,230C3680,230,3520,230,3360,230C3200,230,3040,230,2880,230C2720,230,2560,230,2400,230C2240,230,2080,230,1920,230C1760,230,1600,230,1440,230C1280,230,1120,230,960,230C800,230,640,230,480,230C320,230,160,230,80,230L0,230Z"/><defs><linearGradient id="sw-gradient-1" x1="0" x2="0" y1="1" y2="0"><stop stop-color="rgba(243, 106, 62, 1)" offset="0%"/><stop stop-color="rgba(255, 179, 11, 1)" offset="100%"/></linearGradient></defs><path style="transform:translate(0, 50px); opacity:0.9" fill="url(#sw-gradient-1)" d="M0,138L80,145.7C160,153,320,169,480,145.7C640,123,800,61,960,34.5C1120,8,1280,15,1440,26.8C1600,38,1760,54,1920,49.8C2080,46,2240,23,2400,46C2560,69,2720,138,2880,157.2C3040,176,3200,146,3360,138C3520,130,3680,146,3840,138C4000,130,4160,100,4320,72.8C4480,46,4640,23,4800,15.3C4960,8,5120,15,5280,23C5440,31,5600,38,5760,57.5C5920,77,6080,107,6240,115C6400,123,6560,107,6720,111.2C6880,115,7040,138,7200,122.7C7360,107,7520,54,7680,57.5C7840,61,8000,123,8160,134.2C8320,146,8480,107,8640,95.8C8800,84,8960,100,9120,115C9280,130,9440,146,9600,138C9760,130,9920,100,10080,76.7C10240,54,10400,38,10560,49.8C10720,61,10880,100,11040,118.8C11200,138,11360,138,11440,138L11520,138L11520,230L11440,230C11360,230,11200,230,11040,230C10880,230,10720,230,10560,230C10400,230,10240,230,10080,230C9920,230,9760,230,9600,230C9440,230,9280,230,9120,230C8960,230,8800,230,8640,230C8480,230,8320,230,8160,230C8000,230,7840,230,7680,230C7520,230,7360,230,7200,230C7040,230,6880,230,6720,230C6560,230,6400,230,6240,230C6080,230,5920,230,5760,230C5600,230,5440,230,5280,230C5120,230,4960,230,4800,230C4640,230,4480,230,4320,230C4160,230,4000,230,3840,230C3680,230,3520,230,3360,230C3200,230,3040,230,2880,230C2720,230,2560,230,2400,230C2240,230,2080,230,1920,230C1760,230,1600,230,1440,230C1280,230,1120,230,960,230C800,230,640,230,480,230C320,230,160,230,80,230L0,230Z"/></svg>